<svg width="119" height="120" viewBox="0 0 119 120" fill="none" xmlns="http://www.w3.org/2000/svg">
<path d="M59.5014 36.7861C46.6802 36.7861 36.2502 47.1988 36.2502 59.9986C36.2502 72.7985 46.6802 83.2111 59.5014 83.2111C72.3226 83.2111 82.7526 72.7985 82.7526 59.9986C82.7526 47.1988 72.3226 36.7861 59.5014 36.7861ZM59.5014 36.7861C46.6802 36.7861 36.2502 47.1988 36.2502 59.9986C36.2502 72.7985 46.6802 83.2111 59.5014 83.2111C72.3226 83.2111 82.7526 72.7985 82.7526 59.9986C82.7526 47.1988 72.3226 36.7861 59.5014 36.7861ZM59.5014 0.933105C26.8254 0.933105 0.334595 27.377 0.334595 59.9986C0.334595 92.6203 26.8254 119.067 59.5014 119.067C92.1774 119.067 118.665 92.6203 118.665 59.9986C118.665 27.377 92.1774 0.933105 59.5014 0.933105ZM18.2462 59.9986C18.2462 61.2342 17.2438 62.2349 16.0062 62.2349C14.7686 62.2349 13.7662 61.2342 13.7662 59.9986C13.7662 34.8238 34.2818 14.3396 59.5014 14.3396C60.739 14.3396 61.7414 15.3403 61.7414 16.5758C61.7414 17.8114 60.739 18.8121 59.5014 18.8121C36.7542 18.8121 18.2462 37.2893 18.2462 59.9986ZM31.7702 59.9986C31.7702 44.7333 44.2106 32.3136 59.5014 32.3136C74.7922 32.3136 87.2326 44.7333 87.2326 59.9986C87.2326 75.264 74.7922 87.6837 59.5014 87.6837C44.2106 87.6837 31.7702 75.264 31.7702 59.9986ZM100.734 79.7757C96.7274 88.0862 90.377 94.9236 82.3718 99.5471C82.0162 99.7512 81.6326 99.849 81.2518 99.849C80.4762 99.849 79.7258 99.4493 79.3086 98.7309C78.6898 97.663 79.0566 96.2933 80.1262 95.6756C87.353 91.5021 93.0818 85.3356 96.6966 77.8357C97.2342 76.7231 98.5726 76.2563 99.687 76.7902C100.801 77.3269 101.272 78.6631 100.734 79.7757ZM59.5014 36.7861C46.6802 36.7861 36.2502 47.1988 36.2502 59.9986C36.2502 72.7985 46.6802 83.2111 59.5014 83.2111C72.3226 83.2111 82.7526 72.7985 82.7526 59.9986C82.7526 47.1988 72.3226 36.7861 59.5014 36.7861Z" fill="#3269FF"/>
</svg>
